<mxfile host="65bd71144e" agent="Mozilla/5.0 (Windows NT 10.0; Win64; x64) AppleWebKit/537.36 (KHTML, like Gecko) Code/1.94.2 Chrome/124.0.6367.243 Electron/30.5.1 Safari/537.36" version="24.8.2">
    <diagram id="UXCPhtWaIvNQvefQ0siK" name="Page-1">
        <mxGraphModel dx="3372" dy="1245" grid="1" gridSize="10" guides="1" tooltips="1" connect="1" arrows="1" fold="1" page="1" pageScale="1" pageWidth="850" pageHeight="1100" math="0" shadow="0">
            <root>
                <mxCell id="0"/>
                <mxCell id="1" parent="0"/>
                <mxCell id="58" value="Qoala (Ch. 5)" style="rounded=0;whiteSpace=wrap;html=1;fillColor=none;strokeColor=#82b366;strokeWidth=2;horizontal=0;verticalAlign=top;" vertex="1" parent="1">
                    <mxGeometry x="340" y="170" width="440" height="260" as="geometry"/>
                </mxCell>
                <mxCell id="2" value="Quantum network device" style="rounded=1;whiteSpace=wrap;html=1;" vertex="1" parent="1">
                    <mxGeometry x="457.5" y="470" width="190" height="80" as="geometry"/>
                </mxCell>
                <mxCell id="5" value="Developer" style="shape=umlActor;verticalLabelPosition=bottom;verticalAlign=top;html=1;outlineConnect=0;fontSize=16;" vertex="1" parent="1">
                    <mxGeometry x="250" y="50" width="30" height="60" as="geometry"/>
                </mxCell>
                <mxCell id="7" value="CNPU" style="rounded=1;whiteSpace=wrap;html=1;" vertex="1" parent="1">
                    <mxGeometry x="430" y="220" width="120" height="60" as="geometry"/>
                </mxCell>
                <mxCell id="8" value="QNPU" style="rounded=1;whiteSpace=wrap;html=1;verticalAlign=top;" vertex="1" parent="1">
                    <mxGeometry x="430" y="330" width="120" height="80" as="geometry"/>
                </mxCell>
                <mxCell id="32" value="" style="shape=note;whiteSpace=wrap;html=1;backgroundOutline=1;darkOpacity=0.05;" vertex="1" parent="1">
                    <mxGeometry x="310" y="30" width="80" height="100" as="geometry"/>
                </mxCell>
                <mxCell id="34" value="" style="endArrow=classic;html=1;fillColor=#d5e8d4;strokeColor=#82b366;strokeWidth=2;entryX=0;entryY=0.5;entryDx=0;entryDy=0;" edge="1" parent="1" target="92">
                    <mxGeometry width="50" height="50" relative="1" as="geometry">
                        <mxPoint x="400" y="80" as="sourcePoint"/>
                        <mxPoint x="610" y="70" as="targetPoint"/>
                    </mxGeometry>
                </mxCell>
                <mxCell id="46" value="Qoala Executable&amp;nbsp;&lt;span style=&quot;background-color: initial;&quot;&gt;(Ch. 5)&lt;/span&gt;" style="text;html=1;align=center;verticalAlign=middle;whiteSpace=wrap;rounded=0;fontSize=16;" vertex="1" parent="1">
                    <mxGeometry x="550" width="273.5" height="30" as="geometry"/>
                </mxCell>
                <mxCell id="51" value="Scheduler" style="rounded=0;whiteSpace=wrap;html=1;fillColor=#d5e8d4;strokeColor=#82b366;" vertex="1" parent="1">
                    <mxGeometry x="636" y="310" width="95" height="50" as="geometry"/>
                </mxCell>
                <mxCell id="52" value="Task" style="rounded=1;whiteSpace=wrap;html=1;fontSize=14;fillColor=#d5e8d4;strokeColor=#82b366;" vertex="1" parent="1">
                    <mxGeometry x="636.5" y="200" width="50" height="30" as="geometry"/>
                </mxCell>
                <mxCell id="53" value="Task" style="rounded=1;whiteSpace=wrap;html=1;fontSize=14;fillColor=#d5e8d4;strokeColor=#82b366;" vertex="1" parent="1">
                    <mxGeometry x="696.5" y="200" width="50" height="30" as="geometry"/>
                </mxCell>
                <mxCell id="54" value="Task" style="rounded=1;whiteSpace=wrap;html=1;fontSize=14;fillColor=#d5e8d4;strokeColor=#82b366;" vertex="1" parent="1">
                    <mxGeometry x="636.5" y="240" width="50" height="30" as="geometry"/>
                </mxCell>
                <mxCell id="55" value="Task" style="rounded=1;whiteSpace=wrap;html=1;fontSize=14;fillColor=#d5e8d4;strokeColor=#82b366;" vertex="1" parent="1">
                    <mxGeometry x="696.5" y="240" width="50" height="30" as="geometry"/>
                </mxCell>
                <mxCell id="56" value="" style="shape=curlyBracket;whiteSpace=wrap;html=1;rounded=1;labelPosition=left;verticalLabelPosition=middle;align=right;verticalAlign=middle;fillColor=#d5e8d4;strokeColor=#82b366;" vertex="1" parent="1">
                    <mxGeometry x="606.5" y="190" width="20" height="90" as="geometry"/>
                </mxCell>
                <mxCell id="57" value="" style="shape=curlyBracket;whiteSpace=wrap;html=1;rounded=1;flipH=1;labelPosition=right;verticalLabelPosition=middle;align=left;verticalAlign=middle;fillColor=#d5e8d4;strokeColor=#82b366;" vertex="1" parent="1">
                    <mxGeometry x="754" y="190" width="20" height="90" as="geometry"/>
                </mxCell>
                <mxCell id="59" value="Quantum network device" style="rounded=1;whiteSpace=wrap;html=1;" vertex="1" parent="1">
                    <mxGeometry x="-45" y="480" width="190" height="80" as="geometry"/>
                </mxCell>
                <mxCell id="60" value="QNodeOS (Ch. 4)" style="rounded=0;whiteSpace=wrap;html=1;horizontal=0;verticalAlign=top;fillColor=none;fontSize=16;" vertex="1" parent="1">
                    <mxGeometry x="-50" y="190" width="190" height="270" as="geometry"/>
                </mxCell>
                <mxCell id="61" value="Developer" style="shape=umlActor;verticalLabelPosition=bottom;verticalAlign=top;html=1;outlineConnect=0;fontSize=16;" vertex="1" parent="1">
                    <mxGeometry x="-310" y="60" width="30" height="60" as="geometry"/>
                </mxCell>
                <mxCell id="62" value="NetQASM (Ch. 3)" style="endArrow=classic;html=1;" edge="1" parent="1">
                    <mxGeometry width="50" height="50" relative="1" as="geometry">
                        <mxPoint x="60.01999999999998" y="285" as="sourcePoint"/>
                        <mxPoint x="59.51999999999998" y="345" as="targetPoint"/>
                    </mxGeometry>
                </mxCell>
                <mxCell id="63" value="CNPU" style="rounded=1;whiteSpace=wrap;html=1;horizontal=1;verticalAlign=top;" vertex="1" parent="1">
                    <mxGeometry y="220" width="120" height="60" as="geometry"/>
                </mxCell>
                <mxCell id="64" value="QNPU" style="rounded=1;whiteSpace=wrap;html=1;verticalAlign=top;" vertex="1" parent="1">
                    <mxGeometry y="350" width="120" height="90" as="geometry"/>
                </mxCell>
                <mxCell id="65" value="" style="shape=note;whiteSpace=wrap;html=1;backgroundOutline=1;darkOpacity=0.05;" vertex="1" parent="1">
                    <mxGeometry x="-80" y="30" width="80" height="100" as="geometry"/>
                </mxCell>
                <mxCell id="66" value="" style="endArrow=classic;html=1;edgeStyle=orthogonalEdgeStyle;strokeWidth=2;" edge="1" parent="1">
                    <mxGeometry width="50" height="50" relative="1" as="geometry">
                        <mxPoint x="10" y="90" as="sourcePoint"/>
                        <mxPoint x="80" y="180" as="targetPoint"/>
                    </mxGeometry>
                </mxCell>
                <mxCell id="68" value="" style="group" vertex="1" connectable="0" parent="1">
                    <mxGeometry x="636" y="30" width="84" height="100" as="geometry"/>
                </mxCell>
                <mxCell id="35" value="" style="shape=note;whiteSpace=wrap;html=1;backgroundOutline=1;darkOpacity=0.05;fillColor=#d5e8d4;strokeColor=#82b366;" vertex="1" parent="68">
                    <mxGeometry width="80" height="100" as="geometry"/>
                </mxCell>
                <mxCell id="44" value="&lt;div style=&quot;text-align: justify;&quot;&gt;&lt;span style=&quot;background-color: initial;&quot;&gt;&lt;font face=&quot;Courier New&quot;&gt;010101101&lt;/font&gt;&lt;/span&gt;&lt;/div&gt;&lt;div style=&quot;text-align: justify;&quot;&gt;&lt;font face=&quot;Courier New&quot;&gt;101011011&lt;/font&gt;&lt;/div&gt;&lt;div style=&quot;text-align: justify;&quot;&gt;&lt;font face=&quot;Courier New&quot;&gt;110001100&lt;/font&gt;&lt;/div&gt;" style="text;html=1;align=left;verticalAlign=middle;whiteSpace=wrap;rounded=0;" vertex="1" parent="68">
                    <mxGeometry x="4" y="37" width="80" height="60" as="geometry"/>
                </mxCell>
                <mxCell id="69" value="Shared Memory" style="rounded=0;whiteSpace=wrap;html=1;horizontal=1;fillColor=#d5e8d4;strokeColor=#82b366;direction=south;" vertex="1" parent="1">
                    <mxGeometry x="420" y="290" width="150" height="30" as="geometry"/>
                </mxCell>
                <mxCell id="70" value="" style="endArrow=classic;html=1;" edge="1" parent="1">
                    <mxGeometry width="50" height="50" relative="1" as="geometry">
                        <mxPoint x="624" y="321" as="sourcePoint"/>
                        <mxPoint x="565" y="254" as="targetPoint"/>
                    </mxGeometry>
                </mxCell>
                <mxCell id="71" value="" style="endArrow=classic;html=1;" edge="1" parent="1">
                    <mxGeometry width="50" height="50" relative="1" as="geometry">
                        <mxPoint x="623" y="337" as="sourcePoint"/>
                        <mxPoint x="558" y="364" as="targetPoint"/>
                    </mxGeometry>
                </mxCell>
                <mxCell id="72" value="" style="endArrow=classic;html=1;" edge="1" parent="1">
                    <mxGeometry width="50" height="50" relative="1" as="geometry">
                        <mxPoint x="697" y="305" as="sourcePoint"/>
                        <mxPoint x="698" y="282" as="targetPoint"/>
                    </mxGeometry>
                </mxCell>
                <mxCell id="73" value="" style="endArrow=classic;html=1;" edge="1" parent="1">
                    <mxGeometry width="50" height="50" relative="1" as="geometry">
                        <mxPoint x="-270" y="90" as="sourcePoint"/>
                        <mxPoint x="-100" y="90" as="targetPoint"/>
                    </mxGeometry>
                </mxCell>
                <mxCell id="76" value="&lt;span style=&quot;font-size: 16px; text-wrap: nowrap; background-color: rgb(255, 255, 255);&quot;&gt;Write program using&amp;nbsp;&lt;/span&gt;&lt;div style=&quot;font-size: 16px; text-wrap: nowrap;&quot;&gt;NetQASM SDK (Ch. 3)&lt;/div&gt;" style="text;html=1;align=center;verticalAlign=middle;whiteSpace=wrap;rounded=0;fontSize=16;" vertex="1" parent="1">
                    <mxGeometry x="-250" y="50" width="160" height="30" as="geometry"/>
                </mxCell>
                <mxCell id="77" value="Source code" style="text;html=1;align=center;verticalAlign=middle;whiteSpace=wrap;rounded=0;fontSize=16;" vertex="1" parent="1">
                    <mxGeometry x="-90" width="100" height="30" as="geometry"/>
                </mxCell>
                <mxCell id="78" value="Network&lt;div&gt;stack&lt;/div&gt;" style="rounded=0;whiteSpace=wrap;html=1;" vertex="1" parent="1">
                    <mxGeometry x="15" y="390" width="60" height="30" as="geometry"/>
                </mxCell>
                <mxCell id="79" value="" style="endArrow=classic;startArrow=classic;html=1;entryX=0;entryY=0.5;entryDx=0;entryDy=0;" edge="1" parent="1" target="78">
                    <mxGeometry width="50" height="50" relative="1" as="geometry">
                        <mxPoint x="-130" y="405" as="sourcePoint"/>
                        <mxPoint x="-70" y="380" as="targetPoint"/>
                    </mxGeometry>
                </mxCell>
                <mxCell id="80" value="" style="endArrow=classic;startArrow=classic;html=1;entryX=0;entryY=0.5;entryDx=0;entryDy=0;" edge="1" parent="1">
                    <mxGeometry width="50" height="50" relative="1" as="geometry">
                        <mxPoint x="-125" y="249.55" as="sourcePoint"/>
                        <mxPoint y="249.55" as="targetPoint"/>
                    </mxGeometry>
                </mxCell>
                <mxCell id="81" value="" style="endArrow=classic;startArrow=classic;html=1;entryX=0;entryY=0.5;entryDx=0;entryDy=0;" edge="1" parent="1">
                    <mxGeometry width="50" height="50" relative="1" as="geometry">
                        <mxPoint x="305" y="249.55" as="sourcePoint"/>
                        <mxPoint x="430" y="249.55" as="targetPoint"/>
                    </mxGeometry>
                </mxCell>
                <mxCell id="82" value="" style="endArrow=classic;startArrow=classic;html=1;entryX=0;entryY=0.5;entryDx=0;entryDy=0;" edge="1" parent="1" target="94">
                    <mxGeometry width="50" height="50" relative="1" as="geometry">
                        <mxPoint x="290" y="375" as="sourcePoint"/>
                        <mxPoint x="430" y="360" as="targetPoint"/>
                    </mxGeometry>
                </mxCell>
                <mxCell id="83" value="entangle()&lt;div&gt;measure()&lt;/div&gt;" style="text;html=1;align=left;verticalAlign=middle;whiteSpace=wrap;rounded=0;fontFamily=Courier New;horizontal=1;" vertex="1" parent="1">
                    <mxGeometry x="-75" y="74" width="110" height="30" as="geometry"/>
                </mxCell>
                <mxCell id="86" value="" style="group;fontFamily=Helvetica;fontSize=16;" vertex="1" connectable="0" parent="1">
                    <mxGeometry x="15" y="518" width="25" height="32" as="geometry"/>
                </mxCell>
                <mxCell id="87" value="" style="endArrow=classic;html=1;strokeWidth=3;endSize=0;strokeColor=#9933FF;fontFamily=Helvetica;fontSize=16;" edge="1" parent="86">
                    <mxGeometry width="50" height="50" relative="1" as="geometry">
                        <mxPoint y="32" as="sourcePoint"/>
                        <mxPoint x="25" as="targetPoint"/>
                    </mxGeometry>
                </mxCell>
                <mxCell id="88" value="" style="ellipse;whiteSpace=wrap;html=1;aspect=fixed;fillColor=#9933FF;strokeColor=#9933FF;gradientColor=#CC99FF;gradientDirection=north;fontFamily=Helvetica;fontSize=16;" vertex="1" parent="86">
                    <mxGeometry x="1" y="8" width="20" height="20" as="geometry"/>
                </mxCell>
                <mxCell id="91" value="" style="endArrow=classic;html=1;" edge="1" parent="1">
                    <mxGeometry width="50" height="50" relative="1" as="geometry">
                        <mxPoint x="680" y="139" as="sourcePoint"/>
                        <mxPoint x="680" y="185" as="targetPoint"/>
                    </mxGeometry>
                </mxCell>
                <mxCell id="93" style="edgeStyle=none;html=1;exitX=1;exitY=0.5;exitDx=0;exitDy=0;fillColor=#d5e8d4;strokeColor=#82b366;strokeWidth=2;" edge="1" parent="1" source="92">
                    <mxGeometry relative="1" as="geometry">
                        <mxPoint x="620" y="79.9310344827586" as="targetPoint"/>
                    </mxGeometry>
                </mxCell>
                <mxCell id="92" value="Qoala Compiler&lt;div style=&quot;font-size: 16px;&quot;&gt;(Ch. 6)&lt;/div&gt;" style="rounded=0;whiteSpace=wrap;html=1;fontSize=16;fillColor=#d5e8d4;strokeColor=#82b366;" vertex="1" parent="1">
                    <mxGeometry x="457.5" y="50" width="120" height="60" as="geometry"/>
                </mxCell>
                <mxCell id="94" value="Network&lt;div&gt;stack&lt;/div&gt;" style="rounded=0;whiteSpace=wrap;html=1;" vertex="1" parent="1">
                    <mxGeometry x="440" y="360" width="60" height="30" as="geometry"/>
                </mxCell>
                <mxCell id="95" value="Source code" style="text;html=1;align=center;verticalAlign=middle;whiteSpace=wrap;rounded=0;fontSize=16;" vertex="1" parent="1">
                    <mxGeometry x="300" width="100" height="30" as="geometry"/>
                </mxCell>
            </root>
        </mxGraphModel>
    </diagram>
</mxfile>